<svg width="48" height="48" viewBox="0 0 48 48" fill="none" xmlns="http://www.w3.org/2000/svg">
<path d="M24 21.3333C17.7135 21.3333 12.554 26.1473 12 32.2893H36C35.446 26.1473 30.2865 21.3333 24 21.3333ZM28.5895 27.8288C28.5895 27.2768 29.037 26.8293 29.589 26.8293C30.141 26.8293 30.5885 27.2768 30.5885 27.8288C30.5885 28.3808 30.141 28.8283 29.589 28.8283C29.037 28.8283 28.5895 28.3808 28.5895 27.8288ZM18.411 28.8283C17.859 28.8283 17.4115 28.3808 17.4115 27.8288C17.4115 27.2768 17.859 26.8293 18.411 26.8293C18.963 26.8293 19.4105 27.2768 19.4105 27.8288C19.4105 28.3808 18.963 28.8283 18.411 28.8283Z" fill="white"/>
<path d="M29.019 21.6565C28.949 21.6565 28.8785 21.639 28.814 21.6015C28.6175 21.488 28.5505 21.237 28.6635 21.0405L31.262 16.5365C31.3755 16.3395 31.6265 16.272 31.823 16.386C32.0195 16.4995 32.0865 16.7505 31.9735 16.947L29.375 21.451C29.299 21.583 29.161 21.6565 29.019 21.6565Z" fill="white"/>
<path d="M18.981 21.6565C18.839 21.6565 18.701 21.5825 18.625 21.451L16.027 16.947C15.9135 16.7505 15.981 16.4995 16.177 16.386C16.373 16.272 16.6245 16.3395 16.738 16.5365L19.3365 21.0405C19.45 21.2375 19.3825 21.4885 19.186 21.6015C19.1215 21.639 19.051 21.6565 18.981 21.6565Z" fill="white"/>
</svg>
