<svg width="119" height="119" viewBox="0 0 119 119" fill="none" xmlns="http://www.w3.org/2000/svg">
<path d="M59.5028 36.461C46.6816 36.461 36.2516 46.8736 36.2516 59.6735C36.2516 72.4734 46.6816 82.886 59.5028 82.886C72.324 82.886 82.754 72.4734 82.754 59.6735C82.754 46.8736 72.324 36.461 59.5028 36.461ZM59.5028 36.461C46.6816 36.461 36.2516 46.8736 36.2516 59.6735C36.2516 72.4734 46.6816 82.886 59.5028 82.886C72.324 82.886 82.754 72.4734 82.754 59.6735C82.754 46.8736 72.324 36.461 59.5028 36.461ZM59.5028 0.607971C26.8268 0.607971 0.335999 27.0519 0.335999 59.6735C0.335999 92.2951 26.8268 118.742 59.5028 118.742C92.1788 118.742 118.667 92.2951 118.667 59.6735C118.667 27.0519 92.1788 0.607971 59.5028 0.607971ZM18.2476 59.6735C18.2476 60.909 17.2452 61.9098 16.0076 61.9098C14.77 61.9098 13.7676 60.909 13.7676 59.6735C13.7676 34.4987 34.2832 14.0144 59.5028 14.0144C60.7404 14.0144 61.7428 15.0152 61.7428 16.2507C61.7428 17.4862 60.7404 18.487 59.5028 18.487C36.7556 18.487 18.2476 36.9642 18.2476 59.6735ZM31.7716 59.6735C31.7716 44.4081 44.212 31.9885 59.5028 31.9885C74.7936 31.9885 87.234 44.4081 87.234 59.6735C87.234 74.9389 74.7936 87.3586 59.5028 87.3586C44.212 87.3586 31.7716 74.9389 31.7716 59.6735ZM100.736 79.4505C96.7288 87.7611 90.3784 94.5985 82.3732 99.222C82.0176 99.426 81.634 99.5239 81.2532 99.5239C80.4776 99.5239 79.7272 99.1241 79.31 98.4057C78.6912 97.3379 79.058 95.9682 80.1276 95.3504C87.3544 91.177 93.0832 85.0105 96.698 77.5106C97.2356 76.398 98.574 75.9312 99.6884 76.4651C100.803 77.0018 101.273 78.338 100.736 79.4505ZM59.5028 36.461C46.6816 36.461 36.2516 46.8736 36.2516 59.6735C36.2516 72.4734 46.6816 82.886 59.5028 82.886C72.324 82.886 82.754 72.4734 82.754 59.6735C82.754 46.8736 72.324 36.461 59.5028 36.461Z" fill="white"/>
</svg>
