<svg width="500" height="500" viewBox="0 0 500 500" fill="none" xmlns="http://www.w3.org/2000/svg">
<path d="M0 130C0 58.203 58.203 0 130 0H370C441.797 0 500 58.203 500 130V370C500 441.797 441.797 500 370 500H130C58.203 500 0 441.797 0 370V130Z" fill="#9AB168"/>
<path d="M342.509 73C340.681 73 338.785 74.7561 337.119 77.0826C335.316 79.5977 333.749 82.3956 332.063 84.9999C315.743 110.642 287.228 124.17 262.251 139.439C223.771 161.057 175.08 189.165 180.161 240.696C180.886 247.443 182.209 254.179 185.408 260.212C189.245 267.137 195.041 274.295 202.4 277.758C212.228 282.252 226.338 283.383 236.715 279.643C242.722 277.405 248.464 274.121 253.755 270.634C261.492 265.152 270.188 258.624 276.626 251.084C283.916 241.897 277.625 239.481 270.193 245.95C260.639 254.204 251.34 263.049 239.988 268.729C230.993 273.209 218.798 277.475 210.89 270.579C200.033 260.192 203.874 241.664 212.385 230.874C221.669 218.328 235.005 209.821 248.322 202.251C287.067 180.359 335.645 158.006 348.075 110.766C350.088 101.246 350.838 91.2553 348.756 81.7259C347.79 77.8863 345.919 73.0744 342.563 73H342.499H342.509Z" fill="#3A281D"/>
<path d="M157.491 427C159.319 427 161.215 425.244 162.881 422.917C164.684 420.402 166.251 417.604 167.937 415C184.257 389.358 212.772 375.83 237.749 360.561C276.229 338.943 324.92 310.835 319.839 259.304C319.114 252.557 317.791 245.821 314.592 239.788C310.756 232.863 304.96 225.705 297.601 222.242C287.772 217.748 273.662 216.617 263.285 220.357C257.278 222.595 251.536 225.879 246.245 229.366C238.508 234.848 229.812 241.376 223.374 248.916C216.084 258.103 222.375 260.519 229.807 254.05C239.361 245.796 248.66 236.951 260.012 231.271C269.007 226.791 281.202 222.525 289.11 229.421C299.967 239.808 296.126 258.336 287.616 269.126C278.331 281.672 264.995 290.179 251.678 297.749C212.933 319.641 164.355 341.994 151.926 389.234C149.912 398.754 149.162 408.745 151.245 418.274C152.21 422.114 154.081 426.926 157.437 427H157.501H157.491Z" fill="#3A281D"/>
</svg>
