<svg width="64" height="64" viewBox="0 0 64 64" fill="none" xmlns="http://www.w3.org/2000/svg">
<path d="M23.9519 48.96L25.4999 44.892L5.44787 34.668V31.572L20.8559 23.724V26.604L9.87587 32.076C9.44387 32.292 9.03587 32.496 8.65187 32.688C8.24387 32.88 7.93187 33.012 7.71587 33.084C7.93187 33.156 8.24387 33.288 8.65187 33.48C9.03587 33.672 9.44387 33.876 9.87587 34.092L26.3999 42.516L36.7679 15.12H39.7919L37.5959 20.988L58.2959 31.572V34.668L42.8879 42.516V39.708L53.8679 34.236C54.3479 33.996 54.8039 33.78 55.2359 33.588C55.6919 33.396 56.0279 33.264 56.2439 33.192C56.0039 33.096 55.6559 32.952 55.1999 32.76C54.7439 32.568 54.2999 32.364 53.8679 32.148L36.6599 23.364L26.9759 48.96H23.9519Z" fill="white"/>
</svg>
