<svg width="48" height="48" viewBox="0 0 48 48" fill="none" xmlns="http://www.w3.org/2000/svg">
<path d="M15.4199 12.96L25.8149 23.28L28.6649 20.43L16.0649 13.155C15.8549 13.0331 15.6299 12.9656 15.4199 12.96ZM14.5499 13.44C14.4562 13.6069 14.3999 13.8037 14.3999 14.025V34.08C14.3999 34.2412 14.4337 34.3856 14.4899 34.515L25.1249 23.955L14.5499 13.44ZM29.5349 20.925L26.4899 23.955L29.5349 26.97L33.2549 24.84C33.7837 24.5344 33.8587 24.1462 33.8549 23.94C33.8493 23.5987 33.6337 23.28 33.2699 23.085C32.953 22.9144 30.5999 21.5437 29.5349 20.925ZM25.8149 24.63L15.3299 35.025C15.5043 35.0156 15.6937 34.9781 15.8699 34.875C16.2805 34.6369 24.5849 29.835 24.5849 29.835L28.6799 27.48L25.8149 24.63Z" fill="white"/>
</svg>
