<svg width="48" height="48" viewBox="0 0 48 48" fill="none" xmlns="http://www.w3.org/2000/svg">
<path d="M13.6172 22.3873C21.0023 18.647 30.5593 14.0868 31.8785 13.4557C35.339 11.8037 36.4008 12.1203 35.8714 15.7787C35.4912 18.4082 34.3941 27.1139 33.5197 32.5325C33.0009 35.7458 31.8368 36.1267 30.0064 34.7365C29.1261 34.0675 24.6832 30.6851 23.7189 29.8909C22.8386 29.167 21.6246 28.2964 23.1471 26.5815C23.6889 25.9706 27.2405 22.0666 30.0076 19.0279C30.3701 18.6287 29.9147 17.9732 29.4963 18.2932C25.7667 21.1405 20.5957 25.0926 19.9376 25.6074C18.9433 26.3846 17.9885 26.7412 16.2744 26.1743C14.9793 25.746 13.7141 25.2353 13.2217 25.0405C11.3255 24.2909 11.7756 23.3202 13.6172 22.3873Z" fill="white"/>
</svg>
