<svg width="48" height="48" viewBox="0 0 48 48" fill="none" xmlns="http://www.w3.org/2000/svg">
<mask id="mask0_80_34" style="mask-type:alpha" maskUnits="userSpaceOnUse" x="10" y="10" width="28" height="28">
<path d="M27.2871 28.8833C26.1555 28.6006 25.362 27.5884 25.362 26.4274V12.7498C25.362 11.4311 26.6081 10.464 27.8934 10.7851L36.0328 12.8184C37.1644 13.101 37.9579 14.1132 37.9579 15.2742V28.9518C37.9579 30.2705 36.7118 31.2376 35.4265 30.9165L27.2871 28.8833Z" fill="white"/>
<path d="M11.9673 35.1817C10.8357 34.899 10.0422 33.8868 10.0422 32.7258L10.0422 19.0482C10.0422 17.7295 11.2883 16.7624 12.5736 17.0835L20.713 19.1167C21.8446 19.3994 22.638 20.4116 22.638 21.5726V35.2502C22.638 36.5689 21.392 37.536 20.1067 37.2149L11.9673 35.1817Z" fill="white"/>
<path d="M19.6273 32.0323C18.4957 31.7496 17.7022 30.7373 17.7022 29.5764V15.8988C17.7022 14.5801 18.9483 13.613 20.2336 13.934L28.373 15.9673C29.5046 16.25 30.2981 17.2622 30.2981 18.4232V32.1008C30.2981 33.4195 29.052 34.3866 27.7667 34.0655L19.6273 32.0323Z" fill="white"/>
<path d="M24.9544 33.3669C24.598 33.2762 24.3443 32.961 24.3318 32.5934L23.9777 22.1478C23.8753 20.7654 22.8491 19.6659 21.7767 19.3421C21.7165 19.3239 21.6522 19.3484 21.6166 19.4002C21.5803 19.4528 21.5943 19.5257 21.6449 19.5648C21.9097 19.7698 22.6385 20.4388 22.6385 21.5927L22.6364 32.7795L24.9544 33.3669Z" fill="#0077FF"/>
<path d="M32.6161 30.2149C32.26 30.1258 32.006 29.8116 31.9935 29.4447L31.6394 18.9999C31.5369 17.6174 30.5107 16.5179 29.4383 16.1941C29.3781 16.1759 29.3138 16.2004 29.2782 16.2522C29.2419 16.3049 29.2559 16.3778 29.3065 16.4169C29.5713 16.6219 30.3002 17.2908 30.3002 18.4447L30.298 29.6354L32.6161 30.2149Z" fill="#0077FF"/>
</mask>
<g mask="url(#mask0_80_34)">
<path fill-rule="evenodd" clip-rule="evenodd" d="M23.2022 44.7231C13.6987 44.7231 8.94698 44.7231 5.9946 41.7707C3.04224 38.8184 3.04224 34.0665 3.04224 24.563L3.04224 22.883C3.04224 13.3794 3.04224 8.62767 5.9946 5.67531C8.94697 2.72311 13.6987 2.72311 23.2022 2.72311L24.8822 2.72311C34.3857 2.72311 39.1375 2.72311 42.0898 5.67531C45.0422 8.62767 45.0422 13.3794 45.0422 22.883V24.563C45.0422 34.0665 45.0422 38.8184 42.0898 41.7707C39.1375 44.7231 34.3857 44.7231 24.8822 44.7231H23.2022Z" fill="white"/>
</g>
</svg>
