<svg width="48" height="48" viewBox="0 0 48 48" fill="none" xmlns="http://www.w3.org/2000/svg">
<path d="M15.5 15H23C23.276 15 23.5 15.224 23.5 15.5V23C23.5 23.276 23.276 23.5 23 23.5H15.5C15.224 23.5 15 23.276 15 23V15.5C15 15.224 15.224 15 15.5 15Z" fill="white"/>
<path d="M24.521 22.979V15.5C24.521 15.224 24.745 15 25.021 15H32.5C32.776 15 33 15.224 33 15.5V22.979C33 23.255 32.776 23.479 32.5 23.479H25.021C24.7445 23.479 24.521 23.2555 24.521 22.979Z" fill="white"/>
<path d="M15.5 24.5H23C23.276 24.5 23.5 24.724 23.5 25V32.5C23.5 32.776 23.276 33 23 33H15.5C15.224 33 15 32.776 15 32.5V25C15 24.724 15.224 24.5 15.5 24.5Z" fill="white"/>
<path d="M24.5 32.5V25C24.5 24.724 24.724 24.5 25 24.5H32.5C32.776 24.5 33 24.724 33 25V32.5C33 32.776 32.776 33 32.5 33H25C24.724 33 24.5 32.776 24.5 32.5Z" fill="white"/>
</svg>
