<svg width="48" height="48" viewBox="0 0 48 48" fill="none" xmlns="http://www.w3.org/2000/svg">
<path d="M24 12C30.6275 12 36 17.5081 36 24.303C36 29.7655 32.526 34.394 27.7205 36C27.722 35.9954 27.724 35.9887 27.724 35.9887C27.724 35.9887 26.914 35.5996 26.931 34.905C26.95 34.1407 26.931 32.3568 26.931 31.7022C26.931 30.578 26.237 29.7814 26.237 29.7814C26.237 29.7814 31.679 29.8439 31.679 23.8908C31.679 21.5937 30.508 20.3988 30.508 20.3988C30.508 20.3988 31.123 17.9464 30.295 16.9068C29.367 16.8043 27.705 17.8162 26.995 18.2894C26.995 18.2894 25.87 17.8167 23.9995 17.8167C22.1285 17.8167 21.004 18.2894 21.004 18.2894C20.2945 17.8167 18.632 16.8043 17.704 16.9068C16.876 17.9469 17.491 20.3988 17.491 20.3988C17.491 20.3988 16.32 21.5943 16.32 23.8908C16.32 29.8439 21.762 29.7814 21.762 29.7814C21.762 29.7814 21.2135 30.4165 21.094 31.3505C20.714 31.4828 20.1555 31.6458 19.704 31.6458C18.523 31.6458 17.6245 30.4688 17.2955 29.9244C16.971 29.3872 16.3055 28.9366 15.685 28.9366C15.2765 28.9366 15.077 29.1462 15.077 29.3856C15.077 29.625 15.65 29.7921 16.028 30.2361C16.825 31.1721 16.8105 33.2775 19.6505 33.2775C19.959 33.2775 20.5885 33.1995 21.062 33.1344C21.059 33.7973 21.0585 34.4965 21.0685 34.905C21.0855 35.5996 20.2755 35.9887 20.2755 35.9887C20.2755 35.9887 20.2775 35.9954 20.279 36C15.474 34.394 12 29.7655 12 24.303C12 17.5081 17.3725 12 24 12Z" fill="white"/>
</svg>
