<svg width="50" height="50" viewBox="0 0 50 50" fill="none" xmlns="http://www.w3.org/2000/svg">
<path d="M41.358 9.42616C40.778 8.93326 39.8671 8.86273 38.9252 9.24171H38.9236C37.9331 9.64006 10.8834 21.2682 9.78228 21.7433C9.582 21.813 7.83282 22.4671 8.013 23.9241C8.17384 25.2378 9.57968 25.7818 9.75135 25.8446L16.6282 28.2045C17.0844 29.7266 18.7663 35.3422 19.1383 36.5419C19.3703 37.2898 19.7484 38.2725 20.4111 38.4748C20.9926 38.6995 21.5711 38.4942 21.9453 38.1997L26.1497 34.2913L32.9368 39.5962L33.0985 39.6931C33.5593 39.8977 34.0009 40 34.4223 40C34.7479 40 35.0603 39.9388 35.3588 39.8163C36.3757 39.3978 36.7824 38.4267 36.8249 38.3167L41.8946 11.9069C42.2039 10.4964 41.774 9.77879 41.358 9.42616ZM22.6931 29.1484L20.3732 35.3484L18.0534 27.5984L35.839 14.4234L22.6931 29.1484Z" fill="white"/>
</svg>
